<svg aria-hidden="true" style="position:absolute;width:0;height:0;overflow:hidden" xmlns="http://www.w3.org/2000/svg">
  <defs>
    <symbol id="align-justify" viewBox="0 0 32 32">
      <path stroke-linejoin="round" stroke-linecap="round" stroke-width="2.4" d="M28 13.333H4M28 8H4M28 18.667H4M28 24H4"/>
    </symbol>
    <symbol id="logo" viewBox="0 0 241 32">
      <path d="M0 31.965V0h5.991l14.798 10.372h.224L35.811 0h5.99v31.965h-7.153V8.941L24.5 15.736v16.228h-7.153V15.736L7.154 8.941v23.024H.001zM48.515 31.965V0h7.153v31.965h-7.153zM62.365 31.965V0h7.242l22.621 22.979V0h7.153v31.965h-7.242L69.518 8.941v23.024h-7.153zM106.077 31.965V0h7.153v31.965h-7.153zM119.927 31.965V0h5.991l14.798 10.372h.223L155.737 0h5.991v31.965h-7.153V8.941l-10.148 6.795v16.228h-7.153V15.736l-10.193-6.795v23.024h-7.153zM165.759 31.965 180.154 0h11.042l14.396 31.965h-7.78l-3.04-6.751h-18.195l-3.04 6.751h-7.779zm13.412-12.563h13.01l-6.214-13.814h-.581l-6.214 13.814zM209.623 31.965V0h7.153v26.153h23.381v5.812h-30.534z"/>
    </symbol>
     <symbol id="close-btn" viewBox="0 0 32 32">
      <path stroke-linejoin="round" stroke-linecap="round" stroke-width="2.4" d="M24 8 8 24M8 8l16 16"/>
    </symbol>
  </defs>
</svg>
