<?xml version="1.0" standalone="no"?>
<!DOCTYPE svg PUBLIC "-//W3C//DTD SVG 20010904//EN"
 "http://www.w3.org/TR/2001/REC-SVG-20010904/DTD/svg10.dtd">
<svg version="1.0" xmlns="http://www.w3.org/2000/svg"
 width="64.000000pt" height="64.000000pt" viewBox="0 0 64.000000 64.000000"
 preserveAspectRatio="xMidYMid meet">

<g transform="translate(0.000000,64.000000) scale(0.100000,-0.100000)"
fill="#000000" stroke="none">
<path d="M182 600 c-112 -57 -172 -153 -172 -280 0 -127 60 -223 172 -280 52
-26 72 -30 138 -30 66 0 86 4 138 30 113 57 172 153 172 281 0 65 -4 85 -30
137 -57 113 -153 172 -281 172 -65 0 -85 -4 -137 -30z m86 -17 c-21 -24 -68
-119 -68 -138 0 -8 -3 -15 -6 -15 -10 0 -104 42 -104 47 0 37 119 119 179 122
12 1 11 -2 -1 -16z m180 -10 c38 -18 102 -75 102 -90 0 -9 -87 -53 -104 -53
-2 0 -7 13 -11 29 -3 16 -22 55 -40 86 l-35 57 28 -7 c15 -3 42 -14 60 -22z
m-87 -29 c14 -21 33 -58 42 -80 l16 -42 -31 -6 c-39 -8 -97 -8 -136 0 l-30 6
13 38 c23 66 71 133 89 127 6 -2 23 -21 37 -43z m-231 -122 l55 -24 0 -78 0
-78 -55 -24 c-30 -13 -57 -24 -61 -26 -11 -5 -29 75 -29 128 0 53 18 133 29
128 4 -2 31 -13 61 -26z m458 -11 c7 -21 12 -62 12 -91 0 -53 -18 -133 -29
-128 -4 2 -31 13 -61 26 l-55 24 0 78 0 78 55 25 c30 14 58 25 61 26 3 1 11
-16 17 -38z m-163 -91 l0 -64 -105 0 -105 0 -3 53 c-2 30 -1 59 1 65 3 7 40
11 108 10 l104 0 0 -64z m-37 -96 l31 -6 -16 -42 c-23 -57 -66 -121 -83 -121
-18 0 -65 68 -84 122 -14 40 -14 42 7 46 36 7 112 7 145 1z m-188 -29 c0 -19
47 -113 69 -139 15 -18 15 -19 -14 -12 -65 16 -165 84 -165 113 0 10 77 51 98
52 6 1 12 -6 12 -14z m301 -6 c27 -12 49 -26 49 -32 0 -28 -98 -96 -162 -112
l-28 -7 35 57 c18 31 37 70 40 86 4 16 9 29 11 29 3 0 28 -10 55 -21z"/>
</g>
</svg>
